<?xml version="1.0" encoding="UTF-8" standalone="no"?>
<!-- Created with Inkscape (http://www.inkscape.org/) -->

<svg
   version="1.1"
   id="svg1"
   width="512"
   height="512"
   viewBox="0 0 512 512"
   xmlns="http://www.w3.org/2000/svg"
   xmlns:svg="http://www.w3.org/2000/svg">
  <defs
     id="defs1" />
  <g
     id="g1"
     transform="translate(-512)">
    <g
       id="g2">
      <path
         style="fill:#1e2939;fill-opacity:1"
         d="M 512,512 V 0 h 256 256 v 512 z"
         id="path2" />
      <path
         style="fill:#ffffff;fill-opacity:1"
         d="m 733.45932,375.44967 c 17.02763,-7.98521 31.81301,-15.29056 32.85641,-16.23412 1.0434,-0.94355 2.69844,-3.29055 3.67786,-5.21555 0.97943,-1.925 8.39094,-31.175 16.47004,-65 23.99441,-100.45818 22.67657,-95.82553 28.35585,-99.68052 2.40397,-1.63177 5.87877,-1.87306 33.68052,-2.33879 26.79252,-0.44882 31.5429,-0.76048 35,-2.29627 6.36134,-2.82597 11.45637,-6.75662 14.42797,-11.13073 3.14569,-4.63035 17.61741,-46.86223 16.61449,-48.48499 C 914.07969,124.31992 877.51784,124 792.40886,124 c -133.63064,0 -126.60635,-0.33193 -129.65775,6.12697 -2.45472,5.19592 -14.93747,51.53685 -14.57339,54.10222 L 648.5,186.5 l 47.72,0.25968 c 44.52163,0.24227 47.78364,0.37861 48.66966,2.03415 0.80897,1.51157 -21.31749,96.22035 -44.30915,189.65819 -1.34685,5.47362 -2.2269,10.31112 -1.95565,10.75 0.27124,0.43889 1.25412,0.79083 2.18416,0.7821 0.93004,-0.009 15.62267,-6.54924 32.6503,-14.53445 z"
         id="path9" />
    </g>
  </g>
</svg>
